<svg version="1.1" viewBox="0 0 2480 588" xmlns:xlink="http://www.w3.org/1999/xlink" xmlns="http://www.w3.org/2000/svg"><defs><filter id="sh"><feGaussianBlur in="SourceAlpha" stdDeviation="4"/><feOffset dx="2" dy="3"/><feBlend in="SourceGraphic"/></filter></defs><rect x="107" y="470" width="106" height="60" style="fill:#cfe2f3;stroke-width:3;stroke:#000000" filter="url(#sh)"/><rect x="80" y="230" width="160" height="90" style="fill:#cfe2f3;stroke-width:3;stroke:#674ea7" filter="url(#sh)"/><line x1="160" y1="470" x2="160" y2="320" style="stroke:#b59a0b;stroke-width:3"/><polygon points="160,322 157,331 163,331" fill="#b59a0b"/><rect x="307" y="338" width="106" height="60" style="fill-opacity:0;stroke-width:3;stroke:#000000"/><rect x="280" y="30" width="160" height="90" style="fill-opacity:0;stroke-width:3;stroke:#674ea7"/><rect x="507" y="404" width="106" height="60" style="fill-opacity:0;stroke-width:3;stroke:#000000"/><rect x="480" y="130" width="160" height="90" style="fill-opacity:0;stroke-width:3;stroke:#674ea7"/><rect x="707" y="338" width="106" height="60" style="fill-opacity:0;stroke-width:3;stroke:#000000"/><rect x="680" y="30" width="160" height="90" style="fill-opacity:0;stroke-width:3;stroke:#674ea7"/><rect x="907" y="470" width="106" height="60" style="fill:#cfe2f3;stroke-width:3;stroke:#000000" filter="url(#sh)"/><line x1="240" y1="275" x2="907" y2="500" style="stroke:#b59a0b;stroke-width:3"/><polygon points="907,500 904,497 904,503" fill="#b59a0b" transform="rotate(18.6 907 500)"/><rect x="880" y="230" width="160" height="90" style="fill:#cfe2f3;stroke-width:3;stroke:#674ea7" filter="url(#sh)"/><line x1="960" y1="470" x2="960" y2="320" style="stroke:#b59a0b;stroke-width:3"/><polygon points="960,322 957,331 963,331" fill="#b59a0b"/><rect x="1107" y="338" width="106" height="60" style="fill-opacity:0;stroke-width:3;stroke:#000000"/><rect x="1080" y="30" width="160" height="90" style="fill-opacity:0;stroke-width:3;stroke:#674ea7"/><rect x="1307" y="404" width="106" height="60" style="fill-opacity:0;stroke-width:3;stroke:#000000"/><rect x="1280" y="130" width="160" height="90" style="fill-opacity:0;stroke-width:3;stroke:#674ea7"/><rect x="1507" y="338" width="106" height="60" style="fill-opacity:0;stroke-width:3;stroke:#000000"/><rect x="1480" y="30" width="160" height="90" style="fill-opacity:0;stroke-width:3;stroke:#674ea7"/><rect x="1707" y="470" width="106" height="60" style="fill:#cfe2f3;stroke-width:3;stroke:#000000" filter="url(#sh)"/><line x1="1040" y1="275" x2="1707" y2="500" style="stroke:#b59a0b;stroke-width:3"/><polygon points="1707,500 1704,497 1704,503" fill="#b59a0b" transform="rotate(18.6 1707 500)"/><rect x="1680" y="230" width="160" height="90" style="fill:#cfe2f3;stroke-width:3;stroke:#674ea7" filter="url(#sh)"/><line x1="1760" y1="470" x2="1760" y2="320" style="stroke:#b59a0b;stroke-width:3"/><polygon points="1760,322 1757,331 1763,331" fill="#b59a0b"/><rect x="1907" y="338" width="106" height="60" style="fill-opacity:0;stroke-width:3;stroke:#000000"/><rect x="1880" y="30" width="160" height="90" style="fill-opacity:0;stroke-width:3;stroke:#674ea7"/><rect x="2107" y="404" width="106" height="60" style="fill-opacity:0;stroke-width:3;stroke:#000000"/><rect x="2080" y="130" width="160" height="90" style="fill-opacity:0;stroke-width:3;stroke:#674ea7"/><rect x="2307" y="338" width="106" height="60" style="fill-opacity:0;stroke-width:3;stroke:#000000"/><rect x="2280" y="30" width="160" height="90" style="fill-opacity:0;stroke-width:3;stroke:#674ea7"/><line x1="1840" y1="275" x2="2465" y2="500" style="stroke:#b59a0b;stroke-width:3;stroke-dasharray:5,5"/><polygon points="2465,500 2462,497 2462,503" fill="#b59a0b" transform="rotate(19.8 2465 500)"/><rect x="1660" y="0" width="790" height="543" style="fill:none;stroke-width:2;stroke:#7f7f7f;stroke-dasharray:5,5"/><text x="1662" y="22" font-family="Arial" font-size="20">Repeat</text><line x1="60" y1="553" x2="2465" y2="553" style="stroke:#000000;stroke-width:1"/><polygon points="2465,553 2456,550 2456,556"/><line x1="60" y1="553" x2="60" y2="10" style="stroke:#000000;stroke-width:1"/><polygon points="60,12 57,21 63,21"/><text x="2430" y="575" font-family="Arial" font-size="20">Time<tspan x="155" y="575">0</tspan><tspan x="355" y="575">1</tspan><tspan x="555" y="575">2</tspan><tspan x="755" y="575">3</tspan><tspan x="955" y="575">4</tspan><tspan x="1155" y="575">5</tspan><tspan x="1355" y="575">6</tspan><tspan x="1555" y="575">7</tspan><tspan x="1755" y="575">8</tspan><tspan x="1955" y="575">9</tspan><tspan x="2155" y="575">10</tspan><tspan x="2355" y="575">11</tspan><tspan x="2" y="20">Layer</tspan><tspan x="2" y="510">S0T0</tspan><tspan x="2" y="444">S0T1</tspan><tspan x="2" y="378">S0T2</tspan><tspan x="2" y="285">S1T0</tspan><tspan x="2" y="185">S1T1</tspan><tspan x="2" y="85">S1T2</tspan><tspan x="150" y="511">1</tspan><tspan x="150" y="286">2</tspan><tspan x="950" y="511">9</tspan><tspan x="950" y="286">10</tspan><tspan x="1750" y="511">17</tspan><tspan x="1750" y="286">18</tspan></text></svg>