<svg version="1.1" viewBox="0 0 1680 588" xmlns:xlink="http://www.w3.org/1999/xlink" xmlns="http://www.w3.org/2000/svg"><defs><filter id="sh"><feGaussianBlur in="SourceAlpha" stdDeviation="4"/><feOffset dx="2" dy="3"/><feBlend in="SourceGraphic"/></filter></defs><rect x="107" y="470" width="106" height="60" style="fill:#cfe2f3;stroke-width:3;stroke:#000000" filter="url(#sh)"/><rect x="80" y="230" width="160" height="90" style="fill:#cfe2f3;stroke-width:3;stroke:#674ea7" filter="url(#sh)"/><line x1="160" y1="470" x2="160" y2="320" style="stroke:#000000;stroke-width:1"/><polygon points="160,322 157,331 163,331"/><rect x="307" y="338" width="106" height="60" style="fill-opacity:0;stroke-width:3;stroke:#000000"/><rect x="280" y="30" width="160" height="90" style="fill-opacity:0;stroke-width:3;stroke:#674ea7"/><rect x="507" y="404" width="106" height="60" style="fill-opacity:0;stroke-width:3;stroke:#000000"/><rect x="480" y="130" width="160" height="90" style="fill-opacity:0;stroke-width:3;stroke:#674ea7"/><rect x="707" y="338" width="106" height="60" style="fill-opacity:0;stroke-width:3;stroke:#000000"/><rect x="680" y="30" width="160" height="90" style="fill-opacity:0;stroke-width:3;stroke:#674ea7"/><rect x="907" y="470" width="106" height="60" style="fill:#cfe2f3;stroke-width:3;stroke:#000000" filter="url(#sh)"/><line x1="213" y1="500" x2="907" y2="500" style="stroke:#000000;stroke-width:1"/><polygon points="907,500 898,497 898,503"/><rect x="880" y="230" width="160" height="90" style="fill:#cfe2f3;stroke-width:3;stroke:#674ea7" filter="url(#sh)"/><line x1="240" y1="275" x2="880" y2="275" style="stroke:#000000;stroke-width:1"/><polygon points="880,275 871,272 871,278"/><line x1="960" y1="470" x2="960" y2="320" style="stroke:#000000;stroke-width:1"/><polygon points="960,322 957,331 963,331"/><rect x="1107" y="338" width="106" height="60" style="fill-opacity:0;stroke-width:3;stroke:#000000"/><rect x="1080" y="30" width="160" height="90" style="fill-opacity:0;stroke-width:3;stroke:#674ea7"/><rect x="1307" y="404" width="106" height="60" style="fill-opacity:0;stroke-width:3;stroke:#000000"/><rect x="1280" y="130" width="160" height="90" style="fill-opacity:0;stroke-width:3;stroke:#674ea7"/><rect x="1507" y="338" width="106" height="60" style="fill-opacity:0;stroke-width:3;stroke:#000000"/><rect x="1480" y="30" width="160" height="90" style="fill-opacity:0;stroke-width:3;stroke:#674ea7"/><line x1="1013" y1="500" x2="1665" y2="500" style="stroke:#000000;stroke-width:1;stroke-dasharray:5,5"/><polygon points="1665,500 1656,497 1656,503"/><line x1="1040" y1="275" x2="1665" y2="275" style="stroke:#000000;stroke-width:1;stroke-dasharray:5,5"/><polygon points="1665,275 1656,272 1656,278"/><rect x="860" y="0" width="790" height="543" style="fill:none;stroke-width:2;stroke:#7f7f7f;stroke-dasharray:5,5"/><text x="862" y="22" font-family="Arial" font-size="20">Repeat</text><line x1="60" y1="553" x2="1665" y2="553" style="stroke:#000000;stroke-width:1"/><polygon points="1665,553 1656,550 1656,556"/><line x1="60" y1="553" x2="60" y2="10" style="stroke:#000000;stroke-width:1"/><polygon points="60,12 57,21 63,21"/><text x="1630" y="575" font-family="Arial" font-size="20">Time<tspan x="155" y="575">0</tspan><tspan x="355" y="575">1</tspan><tspan x="555" y="575">2</tspan><tspan x="755" y="575">3</tspan><tspan x="955" y="575">4</tspan><tspan x="1155" y="575">5</tspan><tspan x="1355" y="575">6</tspan><tspan x="1555" y="575">7</tspan><tspan x="2" y="20">Layer</tspan><tspan x="2" y="510">S0T0</tspan><tspan x="2" y="444">S0T1</tspan><tspan x="2" y="378">S0T2</tspan><tspan x="2" y="285">S1T0</tspan><tspan x="2" y="185">S1T1</tspan><tspan x="2" y="85">S1T2</tspan><tspan x="150" y="511">1</tspan><tspan x="150" y="286">2</tspan><tspan x="950" y="511">9</tspan><tspan x="950" y="286">10</tspan></text></svg>