<svg version="1.1" viewBox="0 0 1680 588" xmlns:xlink="http://www.w3.org/1999/xlink" xmlns="http://www.w3.org/2000/svg"><defs><filter id="sh"><feGaussianBlur in="SourceAlpha" stdDeviation="4"/><feOffset dx="2" dy="3"/><feBlend in="SourceGraphic"/></filter></defs><rect x="107" y="470" width="106" height="60" style="fill:#cfe2f3;stroke-width:3;stroke:#000000" filter="url(#sh)"/><rect x="80" y="230" width="160" height="90" style="fill:#cfe2f3;stroke-width:3;stroke:#674ea7" filter="url(#sh)"/><line x1="160" y1="470" x2="160" y2="320" style="stroke:#000000;stroke-width:1"/><polygon points="160,322 157,331 163,331"/><rect x="307" y="338" width="106" height="60" style="fill:#cfe2f3;stroke-width:3;stroke:#000000" filter="url(#sh)"/><line x1="213" y1="500" x2="307" y2="368" style="stroke:#000000;stroke-width:1"/><polygon points="307,368 304,365 304,371" transform="rotate(-54.5 307 368)"/><rect x="280" y="30" width="160" height="90" style="fill:#cfe2f3;stroke-width:3;stroke:#674ea7" filter="url(#sh)"/><line x1="240" y1="275" x2="280" y2="75" style="stroke:#000000;stroke-width:1"/><polygon points="280,75 277,72 277,78" transform="rotate(-78.7 280 75)"/><line x1="360" y1="338" x2="360" y2="120" style="stroke:#000000;stroke-width:1"/><polygon points="360,122 357,131 363,131"/><rect x="507" y="404" width="106" height="60" style="fill:#cfe2f3;stroke-width:3;stroke:#000000" filter="url(#sh)"/><line x1="213" y1="500" x2="507" y2="434" style="stroke:#000000;stroke-width:1"/><polygon points="507,434 504,431 504,437" transform="rotate(-12.7 507 434)"/><rect x="480" y="130" width="160" height="90" style="fill:#cfe2f3;stroke-width:3;stroke:#674ea7" filter="url(#sh)"/><line x1="240" y1="275" x2="480" y2="175" style="stroke:#000000;stroke-width:1"/><polygon points="480,175 477,172 477,178" transform="rotate(-22.6 480 175)"/><line x1="560" y1="404" x2="560" y2="220" style="stroke:#000000;stroke-width:1"/><polygon points="560,222 557,231 563,231"/><rect x="707" y="338" width="106" height="60" style="fill:#cfe2f3;stroke-width:3;stroke:#000000" filter="url(#sh)"/><line x1="613" y1="434" x2="707" y2="368" style="stroke:#000000;stroke-width:1"/><polygon points="707,368 704,365 704,371" transform="rotate(-35.1 707 368)"/><rect x="680" y="30" width="160" height="90" style="fill:#cfe2f3;stroke-width:3;stroke:#674ea7" filter="url(#sh)"/><line x1="640" y1="175" x2="680" y2="75" style="stroke:#000000;stroke-width:1"/><polygon points="680,75 677,72 677,78" transform="rotate(-68.2 680 75)"/><line x1="760" y1="338" x2="760" y2="120" style="stroke:#000000;stroke-width:1"/><polygon points="760,122 757,131 763,131"/><rect x="907" y="470" width="106" height="60" style="fill:#cfe2f3;stroke-width:3;stroke:#000000" filter="url(#sh)"/><line x1="213" y1="500" x2="907" y2="500" style="stroke:#000000;stroke-width:1"/><polygon points="907,500 898,497 898,503"/><rect x="880" y="230" width="160" height="90" style="fill:#cfe2f3;stroke-width:3;stroke:#674ea7" filter="url(#sh)"/><line x1="240" y1="275" x2="880" y2="275" style="stroke:#000000;stroke-width:1"/><polygon points="880,275 871,272 871,278"/><line x1="960" y1="470" x2="960" y2="320" style="stroke:#000000;stroke-width:1"/><polygon points="960,322 957,331 963,331"/><rect x="1107" y="338" width="106" height="60" style="fill:#cfe2f3;stroke-width:3;stroke:#000000" filter="url(#sh)"/><line x1="1013" y1="500" x2="1107" y2="368" style="stroke:#000000;stroke-width:1"/><polygon points="1107,368 1104,365 1104,371" transform="rotate(-54.5 1107 368)"/><rect x="1080" y="30" width="160" height="90" style="fill:#cfe2f3;stroke-width:3;stroke:#674ea7" filter="url(#sh)"/><line x1="1040" y1="275" x2="1080" y2="75" style="stroke:#000000;stroke-width:1"/><polygon points="1080,75 1077,72 1077,78" transform="rotate(-78.7 1080 75)"/><line x1="1160" y1="338" x2="1160" y2="120" style="stroke:#000000;stroke-width:1"/><polygon points="1160,122 1157,131 1163,131"/><rect x="1307" y="404" width="106" height="60" style="fill:#cfe2f3;stroke-width:3;stroke:#000000" filter="url(#sh)"/><line x1="1013" y1="500" x2="1307" y2="434" style="stroke:#000000;stroke-width:1"/><polygon points="1307,434 1304,431 1304,437" transform="rotate(-12.7 1307 434)"/><rect x="1280" y="130" width="160" height="90" style="fill:#cfe2f3;stroke-width:3;stroke:#674ea7" filter="url(#sh)"/><line x1="1040" y1="275" x2="1280" y2="175" style="stroke:#000000;stroke-width:1"/><polygon points="1280,175 1277,172 1277,178" transform="rotate(-22.6 1280 175)"/><line x1="1360" y1="404" x2="1360" y2="220" style="stroke:#000000;stroke-width:1"/><polygon points="1360,222 1357,231 1363,231"/><rect x="1507" y="338" width="106" height="60" style="fill:#cfe2f3;stroke-width:3;stroke:#000000" filter="url(#sh)"/><line x1="1413" y1="434" x2="1507" y2="368" style="stroke:#000000;stroke-width:1"/><polygon points="1507,368 1504,365 1504,371" transform="rotate(-35.1 1507 368)"/><rect x="1480" y="30" width="160" height="90" style="fill:#cfe2f3;stroke-width:3;stroke:#674ea7" filter="url(#sh)"/><line x1="1440" y1="175" x2="1480" y2="75" style="stroke:#000000;stroke-width:1"/><polygon points="1480,75 1477,72 1477,78" transform="rotate(-68.2 1480 75)"/><line x1="1560" y1="338" x2="1560" y2="120" style="stroke:#000000;stroke-width:1"/><polygon points="1560,122 1557,131 1563,131"/><line x1="1013" y1="500" x2="1665" y2="500" style="stroke:#000000;stroke-width:1;stroke-dasharray:5,5"/><polygon points="1665,500 1656,497 1656,503"/><line x1="1040" y1="275" x2="1665" y2="275" style="stroke:#000000;stroke-width:1;stroke-dasharray:5,5"/><polygon points="1665,275 1656,272 1656,278"/><rect x="860" y="0" width="790" height="543" style="fill:none;stroke-width:2;stroke:#7f7f7f;stroke-dasharray:5,5"/><text x="862" y="22" font-family="Arial" font-size="20">Repeat</text><line x1="60" y1="553" x2="1665" y2="553" style="stroke:#000000;stroke-width:1"/><polygon points="1665,553 1656,550 1656,556"/><line x1="60" y1="553" x2="60" y2="10" style="stroke:#000000;stroke-width:1"/><polygon points="60,12 57,21 63,21"/><text x="1630" y="575" font-family="Arial" font-size="20">Time<tspan x="155" y="575">0</tspan><tspan x="355" y="575">1</tspan><tspan x="555" y="575">2</tspan><tspan x="755" y="575">3</tspan><tspan x="955" y="575">4</tspan><tspan x="1155" y="575">5</tspan><tspan x="1355" y="575">6</tspan><tspan x="1555" y="575">7</tspan><tspan x="2" y="20">Layer</tspan><tspan x="2" y="510">S0T0</tspan><tspan x="2" y="444">S0T1</tspan><tspan x="2" y="378">S0T2</tspan><tspan x="2" y="285">S1T0</tspan><tspan x="2" y="185">S1T1</tspan><tspan x="2" y="85">S1T2</tspan><tspan x="150" y="511">1</tspan><tspan x="150" y="286">2</tspan><tspan x="350" y="379">3</tspan><tspan x="350" y="86">4</tspan><tspan x="550" y="445">5</tspan><tspan x="550" y="186">6</tspan><tspan x="750" y="379">7</tspan><tspan x="750" y="86">8</tspan><tspan x="950" y="511">9</tspan><tspan x="950" y="286">10</tspan><tspan x="1150" y="379">11</tspan><tspan x="1150" y="86">12</tspan><tspan x="1350" y="445">13</tspan><tspan x="1350" y="186">14</tspan><tspan x="1550" y="379">15</tspan><tspan x="1550" y="86">16</tspan></text></svg>