<svg version="1.1" viewBox="0 0 1750 588" xmlns:xlink="http://www.w3.org/1999/xlink" xmlns="http://www.w3.org/2000/svg"><defs><filter id="sh"><feGaussianBlur in="SourceAlpha" stdDeviation="4"/><feOffset dx="2" dy="3"/><feBlend in="SourceGraphic"/></filter></defs><rect x="137" y="470" width="106" height="60" style="fill:#cfe2f3;stroke-width:3;stroke:#000000" filter="url(#sh)"/><rect x="110" y="230" width="160" height="90" style="fill-opacity:0;stroke-width:3;stroke:#674ea7"/><rect x="337" y="338" width="106" height="60" style="fill:#cfe2f3;stroke-width:3;stroke:#000000" filter="url(#sh)"/><line x1="243" y1="500" x2="337" y2="368" style="stroke:#000000;stroke-width:1"/><polygon points="337,368 328,365 328,371" transform="rotate(-54.5 337 368)"/><rect x="310" y="30" width="160" height="90" style="fill-opacity:0;stroke-width:3;stroke:#674ea7"/><rect x="537" y="404" width="106" height="60" style="fill:#cfe2f3;stroke-width:3;stroke:#000000" filter="url(#sh)"/><line x1="243" y1="500" x2="537" y2="434" style="stroke:#000000;stroke-width:1"/><polygon points="537,434 528,431 528,437" transform="rotate(-12.7 537 434)"/><rect x="510" y="130" width="160" height="90" style="fill-opacity:0;stroke-width:3;stroke:#674ea7"/><rect x="737" y="338" width="106" height="60" style="fill:#cfe2f3;stroke-width:3;stroke:#000000" filter="url(#sh)"/><line x1="643" y1="434" x2="737" y2="368" style="stroke:#000000;stroke-width:1"/><polygon points="737,368 728,365 728,371" transform="rotate(-35.1 737 368)"/><rect x="710" y="30" width="160" height="90" style="fill-opacity:0;stroke-width:3;stroke:#674ea7"/><rect x="937" y="470" width="106" height="60" style="fill:#cfe2f3;stroke-width:3;stroke:#000000" filter="url(#sh)"/><line x1="243" y1="500" x2="937" y2="500" style="stroke:#000000;stroke-width:1"/><polygon points="937,500 928,497 928,503"/><rect x="910" y="230" width="160" height="90" style="fill-opacity:0;stroke-width:3;stroke:#674ea7"/><rect x="1137" y="338" width="106" height="60" style="fill:#cfe2f3;stroke-width:3;stroke:#000000" filter="url(#sh)"/><line x1="1043" y1="500" x2="1137" y2="368" style="stroke:#000000;stroke-width:1"/><polygon points="1137,368 1128,365 1128,371" transform="rotate(-54.5 1137 368)"/><rect x="1110" y="30" width="160" height="90" style="fill-opacity:0;stroke-width:3;stroke:#674ea7"/><rect x="1337" y="404" width="106" height="60" style="fill:#cfe2f3;stroke-width:3;stroke:#000000" filter="url(#sh)"/><line x1="1043" y1="500" x2="1337" y2="434" style="stroke:#000000;stroke-width:1"/><polygon points="1337,434 1328,431 1328,437" transform="rotate(-12.7 1337 434)"/><rect x="1310" y="130" width="160" height="90" style="fill-opacity:0;stroke-width:3;stroke:#674ea7"/><rect x="1537" y="338" width="106" height="60" style="fill:#cfe2f3;stroke-width:3;stroke:#000000" filter="url(#sh)"/><line x1="1443" y1="434" x2="1537" y2="368" style="stroke:#000000;stroke-width:1"/><polygon points="1537,368 1528,365 1528,371" transform="rotate(-35.1 1537 368)"/><rect x="1510" y="30" width="160" height="90" style="fill-opacity:0;stroke-width:3;stroke:#674ea7"/><line x1="1043" y1="500" x2="1695" y2="500" style="stroke:#000000;stroke-width:1;stroke-dasharray:5,5"/><polygon points="1695,500 1686,497 1686,503"/><rect x="890" y="0" width="790" height="543" style="fill:none;stroke-width:2;stroke:#7f7f7f;stroke-dasharray:5,5"/><text x="892" y="32" font-family="Arial" font-size="30">Repeat</text><line x1="90" y1="553" x2="1695" y2="553" style="stroke:#000000;stroke-width:1"/><polygon points="1695,553 1686,550 1686,556"/><line x1="90" y1="553" x2="90" y2="15" style="stroke:#000000;stroke-width:1"/><polygon points="90,17 87,26 93,26"/><text x="1660" y="585" font-family="Arial" font-size="30">Time<tspan x="185" y="585">0</tspan><tspan x="385" y="585">1</tspan><tspan x="585" y="585">2</tspan><tspan x="785" y="585">3</tspan><tspan x="985" y="585">4</tspan><tspan x="1185" y="585">5</tspan><tspan x="1385" y="585">6</tspan><tspan x="1585" y="585">7</tspan><tspan x="2" y="30">Layer</tspan><tspan x="2" y="515">S0T0</tspan><tspan x="2" y="449">S0T1</tspan><tspan x="2" y="383">S0T2</tspan><tspan x="2" y="290">S1T0</tspan><tspan x="2" y="190">S1T1</tspan><tspan x="2" y="90">S1T2</tspan><tspan x="175" y="511">F1</tspan><tspan x="375" y="379">F3</tspan><tspan x="575" y="445" fill="red">F5</tspan><tspan x="775" y="379">F7</tspan><tspan x="975" y="511">F9</tspan><tspan x="1160" y="379">F11</tspan><tspan x="1360" y="445">F13</tspan><tspan x="1560" y="379">F15</tspan></text></svg>