<svg version="1.1" viewBox="0 0 1550 300" xmlns:xlink="http://www.w3.org/1999/xlink" xmlns="http://www.w3.org/2000/svg"><defs><filter id="sh"><feGaussianBlur in="SourceAlpha" stdDeviation="4"/><feOffset dx="2" dy="3"/><feBlend in="SourceGraphic"/></filter></defs><rect x="110" y="150" width="160" height="90" style="fill:#cfe2f3;stroke-width:3;stroke:#000000" filter="url(#sh)"/><line x1="85" y1="195" x2="110" y2="195" style="stroke:#000000;stroke-width:1;stroke-dasharray:5,5"/><polygon points="110,195 101,192 101,198"/><rect x="110" y="40" width="160" height="90" style="fill:#cfe2f3;stroke-width:3;stroke:#674ea7" filter="url(#sh)"/><line x1="85" y1="85" x2="110" y2="85" style="stroke:#000000;stroke-width:1;stroke-dasharray:5,5"/><polygon points="110,85 101,82 101,88"/><line x1="190" y1="150" x2="190" y2="130" style="stroke:#000000;stroke-width:1"/><polygon points="190,132 187,141 193,141"/><rect x="310" y="150" width="160" height="90" style="fill:#cfe2f3;stroke-width:3;stroke:#000000" filter="url(#sh)"/><line x1="270" y1="195" x2="310" y2="195" style="stroke:#000000;stroke-width:1"/><polygon points="310,195 301,192 301,198"/><rect x="310" y="40" width="160" height="90" style="fill:#cfe2f3;stroke-width:3;stroke:#674ea7" filter="url(#sh)"/><line x1="270" y1="85" x2="310" y2="85" style="stroke:#000000;stroke-width:1"/><polygon points="310,85 301,82 301,88"/><line x1="390" y1="150" x2="390" y2="130" style="stroke:#000000;stroke-width:1"/><polygon points="390,132 387,141 393,141"/><rect x="510" y="40" width="160" height="90" style="fill:#cfe2f3;stroke-width:3;stroke:#674ea7" filter="url(#sh)"/><line x1="470" y1="85" x2="510" y2="85" style="stroke:#000000;stroke-width:1"/><polygon points="510,85 501,82 501,88"/><rect x="710" y="40" width="160" height="90" style="fill:#cfe2f3;stroke-width:3;stroke:#674ea7" filter="url(#sh)"/><line x1="670" y1="85" x2="710" y2="85" style="stroke:#000000;stroke-width:1"/><polygon points="710,85 701,82 701,88"/><rect x="910" y="40" width="160" height="90" style="fill:#cfe2f3;stroke-width:3;stroke:#674ea7" filter="url(#sh)"/><line x1="870" y1="85" x2="910" y2="85" style="stroke:#000000;stroke-width:1"/><polygon points="910,85 901,82 901,88"/><rect x="1110" y="150" width="160" height="90" style="fill:#cfe2f3;stroke-width:3;stroke:#000000" filter="url(#sh)"/><line x1="470" y1="195" x2="1110" y2="195" style="stroke:#000000;stroke-width:1"/><polygon points="1110,195 1101,192 1101,198"/><rect x="1110" y="40" width="160" height="90" style="fill:#cfe2f3;stroke-width:3;stroke:#674ea7" filter="url(#sh)"/><line x1="1070" y1="85" x2="1110" y2="85" style="stroke:#000000;stroke-width:1"/><polygon points="1110,85 1101,82 1101,88"/><line x1="1190" y1="150" x2="1190" y2="130" style="stroke:#000000;stroke-width:1"/><polygon points="1190,132 1187,141 1193,141"/><rect x="1310" y="150" width="160" height="90" style="fill:#cfe2f3;stroke-width:3;stroke:#000000" filter="url(#sh)"/><line x1="1270" y1="195" x2="1310" y2="195" style="stroke:#000000;stroke-width:1"/><polygon points="1310,195 1301,192 1301,198"/><rect x="1310" y="40" width="160" height="90" style="fill:#cfe2f3;stroke-width:3;stroke:#674ea7" filter="url(#sh)"/><line x1="1270" y1="85" x2="1310" y2="85" style="stroke:#000000;stroke-width:1"/><polygon points="1310,85 1301,82 1301,88"/><line x1="1390" y1="150" x2="1390" y2="130" style="stroke:#000000;stroke-width:1"/><polygon points="1390,132 1387,141 1393,141"/><line x1="1470" y1="195" x2="1495" y2="195" style="stroke:#000000;stroke-width:1;stroke-dasharray:5,5"/><polygon points="1495,195 1486,192 1486,198"/><line x1="1470" y1="85" x2="1495" y2="85" style="stroke:#000000;stroke-width:1;stroke-dasharray:5,5"/><polygon points="1495,85 1486,82 1486,88"/><line x1="90" y1="265" x2="1495" y2="265" style="stroke:#000000;stroke-width:1"/><polygon points="1495,265 1486,262 1486,268"/><line x1="90" y1="265" x2="90" y2="15" style="stroke:#000000;stroke-width:1"/><polygon points="90,17 87,26 93,26"/><text x="1460" y="297" font-family="Arial" font-size="30">Time<tspan x="185" y="297">50</tspan><tspan x="385" y="297">51</tspan><tspan x="585" y="297">52</tspan><tspan x="785" y="297">53</tspan><tspan x="985" y="297">54</tspan><tspan x="1185" y="297">55</tspan><tspan x="1385" y="297">56</tspan><tspan x="2" y="30">Layer</tspan><tspan x="2" y="210">S0</tspan><tspan x="2" y="100">S1</tspan><tspan x="160" y="206">F101</tspan><tspan x="160" y="96">F102</tspan><tspan x="360" y="206">F103</tspan><tspan x="360" y="96">F104</tspan><tspan x="560" y="96">F105</tspan><tspan x="760" y="96">F106</tspan><tspan x="960" y="96">F107</tspan><tspan x="1160" y="206">F108</tspan><tspan x="1160" y="96">F109</tspan><tspan x="1360" y="206">F110</tspan><tspan x="1360" y="96">F111</tspan></text></svg>