<svg version="1.1" viewBox="0 0 950 266" xmlns:xlink="http://www.w3.org/1999/xlink" xmlns="http://www.w3.org/2000/svg"><defs><filter id="sh"><feGaussianBlur in="SourceAlpha" stdDeviation="4"/><feOffset dx="2" dy="3"/><feBlend in="SourceGraphic"/></filter></defs><rect x="137" y="148" width="106" height="60" style="fill:#cfe2f3;stroke-width:3;stroke:#000000" filter="url(#sh)"/><line x1="70" y1="85" x2="133" y2="178" style="stroke:#b59a0b;stroke-width:3;stroke-dasharray:5,5"/><polygon points="133,178 124,175 124,181" fill="#b59a0b" transform="rotate(55.9 133 178)"/><rect x="110" y="40" width="160" height="90" style="fill:#cfe2f3;stroke-width:3;stroke:#674ea7" filter="url(#sh)"/><line x1="190" y1="148" x2="190" y2="130" style="stroke:#b59a0b;stroke-width:3"/><polygon points="190,132 187,141 193,141" fill="#b59a0b"/><rect x="337" y="148" width="106" height="60" style="fill:#cfe2f3;stroke-width:3;stroke:#000000" filter="url(#sh)"/><line x1="270" y1="85" x2="333" y2="178" style="stroke:#b59a0b;stroke-width:3"/><polygon points="333,178 324,175 324,181" fill="#b59a0b" transform="rotate(55.9 333 178)"/><rect x="310" y="40" width="160" height="90" style="fill:#cfe2f3;stroke-width:3;stroke:#674ea7" filter="url(#sh)"/><line x1="390" y1="148" x2="390" y2="130" style="stroke:#b59a0b;stroke-width:3"/><polygon points="390,132 387,141 393,141" fill="#b59a0b"/><rect x="537" y="148" width="106" height="60" style="fill:#cfe2f3;stroke-width:3;stroke:#000000" filter="url(#sh)"/><line x1="470" y1="85" x2="533" y2="178" style="stroke:#b59a0b;stroke-width:3"/><polygon points="533,178 524,175 524,181" fill="#b59a0b" transform="rotate(55.9 533 178)"/><rect x="510" y="40" width="160" height="90" style="fill:#cfe2f3;stroke-width:3;stroke:#674ea7" filter="url(#sh)"/><rect x="737" y="148" width="106" height="60" style="fill:#cfe2f3;stroke-width:3;stroke:#000000" filter="url(#sh)"/><line x1="670" y1="85" x2="733" y2="178" style="stroke:#b59a0b;stroke-width:3"/><polygon points="733,178 724,175 724,181" fill="#b59a0b" transform="rotate(55.9 733 178)"/><rect x="710" y="40" width="160" height="90" style="fill:#cfe2f3;stroke-width:3;stroke:#674ea7" filter="url(#sh)"/><line x1="790" y1="148" x2="790" y2="130" style="stroke:#b59a0b;stroke-width:3"/><polygon points="790,132 787,141 793,141" fill="#b59a0b"/><line x1="870" y1="85" x2="933" y2="178" style="stroke:#b59a0b;stroke-width:3;stroke-dasharray:5,5"/><polygon points="933,178 924,175 924,181" fill="#b59a0b" transform="rotate(55.9 933 178)"/><line x1="90" y1="231" x2="895" y2="231" style="stroke:#000000;stroke-width:1"/><polygon points="895,231 886,228 886,234"/><line x1="90" y1="231" x2="90" y2="15" style="stroke:#000000;stroke-width:1"/><polygon points="90,17 87,26 93,26"/><text x="860" y="263" font-family="Arial" font-size="30">Time<tspan x="185" y="263">50</tspan><tspan x="385" y="263">51</tspan><tspan x="585" y="263">52</tspan><tspan x="785" y="263">53</tspan><tspan x="2" y="30">Layer</tspan><tspan x="2" y="193">S0</tspan><tspan x="2" y="100">S1</tspan><tspan x="160" y="189">F101</tspan><tspan x="160" y="96">F102</tspan><tspan x="360" y="189">F103</tspan><tspan x="360" y="96">F104</tspan><tspan x="560" y="189">F105</tspan><tspan x="560" y="96" fill="red">F106</tspan><tspan x="760" y="189">F107</tspan><tspan x="760" y="96">F108</tspan></text></svg>