<svg version="1.1" viewBox="0 0 750 266" xmlns:xlink="http://www.w3.org/1999/xlink" xmlns="http://www.w3.org/2000/svg"><defs><filter id="sh"><feGaussianBlur in="SourceAlpha" stdDeviation="4"/><feOffset dx="2" dy="3"/><feBlend in="SourceGraphic"/></filter></defs><rect x="137" y="148" width="106" height="60" style="fill:#cfe2f3;stroke-width:3;stroke:#000000" filter="url(#sh)"/><rect x="110" y="40" width="160" height="90" style="fill:#cfe2f3;stroke-width:3;stroke:#674ea7" filter="url(#sh)"/><line x1="190" y1="148" x2="190" y2="130" style="stroke:#000000;stroke-width:1"/><polygon points="190,132 187,141 193,141"/><rect x="337" y="148" width="106" height="60" style="fill:#cfe2f3;stroke-width:3;stroke:#000000" filter="url(#sh)"/><line x1="243" y1="178" x2="337" y2="178" style="stroke:#000000;stroke-width:1"/><polygon points="337,178 328,175 328,181"/><rect x="310" y="40" width="160" height="90" style="fill:#cfe2f3;stroke-width:3;stroke:#674ea7" filter="url(#sh)"/><line x1="270" y1="85" x2="310" y2="85" style="stroke:#000000;stroke-width:1"/><polygon points="310,85 301,82 301,88"/><line x1="390" y1="148" x2="390" y2="130" style="stroke:#000000;stroke-width:1"/><polygon points="390,132 387,141 393,141"/><rect x="537" y="148" width="106" height="60" style="fill:#cfe2f3;stroke-width:3;stroke:#000000" filter="url(#sh)"/><line x1="443" y1="178" x2="537" y2="178" style="stroke:#000000;stroke-width:1"/><polygon points="537,178 528,175 528,181"/><rect x="510" y="40" width="160" height="90" style="fill:#cfe2f3;stroke-width:3;stroke:#674ea7" filter="url(#sh)"/><line x1="470" y1="85" x2="510" y2="85" style="stroke:#000000;stroke-width:1"/><polygon points="510,85 501,82 501,88"/><line x1="590" y1="148" x2="590" y2="130" style="stroke:#000000;stroke-width:1"/><polygon points="590,132 587,141 593,141"/><line x1="643" y1="178" x2="695" y2="178" style="stroke:#000000;stroke-width:1;stroke-dasharray:5,5"/><polygon points="695,178 686,175 686,181"/><line x1="670" y1="85" x2="695" y2="85" style="stroke:#000000;stroke-width:1;stroke-dasharray:5,5"/><polygon points="695,85 686,82 686,88"/><rect x="490" y="0" width="190" height="221" style="fill:none;stroke-width:2;stroke:#7f7f7f;stroke-dasharray:5,5"/><text x="492" y="32" font-family="Arial" font-size="30">Repeat</text><line x1="90" y1="231" x2="695" y2="231" style="stroke:#000000;stroke-width:1"/><polygon points="695,231 686,228 686,234"/><line x1="90" y1="231" x2="90" y2="15" style="stroke:#000000;stroke-width:1"/><polygon points="90,17 87,26 93,26"/><text x="660" y="263" font-family="Arial" font-size="30">Time<tspan x="185" y="263">0</tspan><tspan x="385" y="263">1</tspan><tspan x="585" y="263">2</tspan><tspan x="2" y="30">Layer</tspan><tspan x="2" y="193">S0</tspan><tspan x="2" y="100">S1</tspan><tspan x="175" y="189">F1</tspan><tspan x="175" y="96">F2</tspan><tspan x="375" y="189">F3</tspan><tspan x="375" y="96">F4</tspan><tspan x="575" y="189">F5</tspan><tspan x="575" y="96">F6</tspan></text></svg>