<svg version="1.1" viewBox="0 0 2550 588" xmlns:xlink="http://www.w3.org/1999/xlink" xmlns="http://www.w3.org/2000/svg"><defs><filter id="sh"><feGaussianBlur in="SourceAlpha" stdDeviation="4"/><feOffset dx="2" dy="3"/><feBlend in="SourceGraphic"/></filter></defs><rect x="137" y="470" width="106" height="60" style="fill:#cfe2f3;stroke-width:3;stroke:#000000" filter="url(#sh)"/><rect x="110" y="230" width="160" height="90" style="fill:#cfe2f3;stroke-width:3;stroke:#674ea7" filter="url(#sh)"/><line x1="190" y1="470" x2="190" y2="320" style="stroke:#b59a0b;stroke-width:3"/><polygon points="190,322 187,331 193,331" fill="#b59a0b"/><rect x="337" y="338" width="106" height="60" style="fill-opacity:0;stroke-width:3;stroke:#000000"/><rect x="310" y="30" width="160" height="90" style="fill-opacity:0;stroke-width:3;stroke:#674ea7"/><rect x="537" y="404" width="106" height="60" style="fill-opacity:0;stroke-width:3;stroke:#000000"/><line x1="537" y1="434" x2="270" y2="275" style="stroke:#bb05bb;stroke-width:1"/><polygon points="270,275 261,272 261,278" fill="#bb05bb" transform="rotate(-149.2 270 275)"/><rect x="510" y="130" width="160" height="90" style="fill-opacity:0;stroke-width:3;stroke:#674ea7"/><rect x="737" y="338" width="106" height="60" style="fill-opacity:0;stroke-width:3;stroke:#000000"/><rect x="710" y="30" width="160" height="90" style="fill-opacity:0;stroke-width:3;stroke:#674ea7"/><rect x="937" y="470" width="106" height="60" style="fill:#cfe2f3;stroke-width:3;stroke:#000000" filter="url(#sh)"/><line x1="270" y1="275" x2="933" y2="500" style="stroke:#b59a0b;stroke-width:3"/><polygon points="933,500 924,497 924,503" fill="#b59a0b" transform="rotate(18.7 933 500)"/><rect x="910" y="230" width="160" height="90" style="fill:#cfe2f3;stroke-width:3;stroke:#674ea7" filter="url(#sh)"/><line x1="990" y1="470" x2="990" y2="320" style="stroke:#b59a0b;stroke-width:3"/><polygon points="990,322 987,331 993,331" fill="#b59a0b"/><rect x="1137" y="338" width="106" height="60" style="fill-opacity:0;stroke-width:3;stroke:#000000"/><rect x="1110" y="30" width="160" height="90" style="fill-opacity:0;stroke-width:3;stroke:#674ea7"/><rect x="1337" y="404" width="106" height="60" style="fill-opacity:0;stroke-width:3;stroke:#000000"/><rect x="1310" y="130" width="160" height="90" style="fill-opacity:0;stroke-width:3;stroke:#674ea7"/><rect x="1537" y="338" width="106" height="60" style="fill-opacity:0;stroke-width:3;stroke:#000000"/><rect x="1510" y="30" width="160" height="90" style="fill-opacity:0;stroke-width:3;stroke:#674ea7"/><rect x="1737" y="470" width="106" height="60" style="fill:#cfe2f3;stroke-width:3;stroke:#000000" filter="url(#sh)"/><line x1="1070" y1="275" x2="1733" y2="500" style="stroke:#b59a0b;stroke-width:3"/><polygon points="1733,500 1724,497 1724,503" fill="#b59a0b" transform="rotate(18.7 1733 500)"/><rect x="1710" y="230" width="160" height="90" style="fill:#cfe2f3;stroke-width:3;stroke:#674ea7" filter="url(#sh)"/><line x1="1790" y1="470" x2="1790" y2="320" style="stroke:#b59a0b;stroke-width:3"/><polygon points="1790,322 1787,331 1793,331" fill="#b59a0b"/><rect x="1937" y="338" width="106" height="60" style="fill-opacity:0;stroke-width:3;stroke:#000000"/><rect x="1910" y="30" width="160" height="90" style="fill-opacity:0;stroke-width:3;stroke:#674ea7"/><rect x="2137" y="404" width="106" height="60" style="fill-opacity:0;stroke-width:3;stroke:#000000"/><rect x="2110" y="130" width="160" height="90" style="fill-opacity:0;stroke-width:3;stroke:#674ea7"/><rect x="2337" y="338" width="106" height="60" style="fill-opacity:0;stroke-width:3;stroke:#000000"/><rect x="2310" y="30" width="160" height="90" style="fill-opacity:0;stroke-width:3;stroke:#674ea7"/><line x1="1870" y1="275" x2="2495" y2="500" style="stroke:#b59a0b;stroke-width:3;stroke-dasharray:5,5"/><polygon points="2495,500 2486,497 2486,503" fill="#b59a0b" transform="rotate(19.8 2495 500)"/><rect x="1690" y="0" width="790" height="543" style="fill:none;stroke-width:2;stroke:#7f7f7f;stroke-dasharray:5,5"/><text x="1692" y="32" font-family="Arial" font-size="30">Repeat</text><line x1="90" y1="553" x2="2495" y2="553" style="stroke:#000000;stroke-width:1"/><polygon points="2495,553 2486,550 2486,556"/><line x1="90" y1="553" x2="90" y2="15" style="stroke:#000000;stroke-width:1"/><polygon points="90,17 87,26 93,26"/><text x="2460" y="585" font-family="Arial" font-size="30">Time<tspan x="185" y="585">0</tspan><tspan x="385" y="585">1</tspan><tspan x="585" y="585">2</tspan><tspan x="785" y="585">3</tspan><tspan x="985" y="585">4</tspan><tspan x="1185" y="585">5</tspan><tspan x="1385" y="585">6</tspan><tspan x="1585" y="585">7</tspan><tspan x="1785" y="585">8</tspan><tspan x="1985" y="585">9</tspan><tspan x="2185" y="585">10</tspan><tspan x="2385" y="585">11</tspan><tspan x="2" y="30">Layer</tspan><tspan x="2" y="515">S0T0</tspan><tspan x="2" y="449">S0T1</tspan><tspan x="2" y="383">S0T2</tspan><tspan x="2" y="290">S1T0</tspan><tspan x="2" y="190">S1T1</tspan><tspan x="2" y="90">S1T2</tspan><tspan x="175" y="511">F1</tspan><tspan x="175" y="286">F2</tspan><tspan x="575" y="445" fill="red">F5</tspan><tspan x="975" y="511">F9</tspan><tspan x="960" y="286">F10</tspan><tspan x="1760" y="511">F17</tspan><tspan x="1760" y="286">F18</tspan></text></svg>