<svg version="1.1" viewBox="0 0 1750 588" xmlns:xlink="http://www.w3.org/1999/xlink" xmlns="http://www.w3.org/2000/svg"><defs><filter id="sh"><feGaussianBlur in="SourceAlpha" stdDeviation="4"/><feOffset dx="2" dy="3"/><feBlend in="SourceGraphic"/></filter></defs><rect x="137" y="470" width="106" height="60" style="fill:#cfe2f3;stroke-width:3;stroke:#000000" filter="url(#sh)"/><rect x="110" y="230" width="160" height="90" style="fill:#cfe2f3;stroke-width:3;stroke:#674ea7" filter="url(#sh)"/><line x1="190" y1="470" x2="190" y2="320" style="stroke:#000000;stroke-width:1"/><polygon points="190,322 187,331 193,331"/><rect x="337" y="338" width="106" height="60" style="fill:#cfe2f3;stroke-width:3;stroke:#000000" filter="url(#sh)"/><line x1="243" y1="500" x2="337" y2="368" style="stroke:#000000;stroke-width:1"/><polygon points="337,368 328,365 328,371" transform="rotate(-54.5 337 368)"/><rect x="310" y="30" width="160" height="90" style="fill:#cfe2f3;stroke-width:3;stroke:#674ea7" filter="url(#sh)"/><line x1="270" y1="275" x2="310" y2="75" style="stroke:#000000;stroke-width:1"/><polygon points="310,75 301,72 301,78" transform="rotate(-78.7 310 75)"/><line x1="390" y1="338" x2="390" y2="120" style="stroke:#000000;stroke-width:1"/><polygon points="390,122 387,131 393,131"/><rect x="537" y="404" width="106" height="60" style="fill:#cfe2f3;stroke-width:3;stroke:#000000" filter="url(#sh)"/><line x1="243" y1="500" x2="537" y2="434" style="stroke:#000000;stroke-width:1"/><polygon points="537,434 528,431 528,437" transform="rotate(-12.7 537 434)"/><rect x="510" y="130" width="160" height="90" style="fill:#cfe2f3;stroke-width:3;stroke:#674ea7" filter="url(#sh)"/><line x1="270" y1="275" x2="510" y2="175" style="stroke:#000000;stroke-width:1"/><polygon points="510,175 501,172 501,178" transform="rotate(-22.6 510 175)"/><line x1="590" y1="404" x2="590" y2="220" style="stroke:#000000;stroke-width:1"/><polygon points="590,222 587,231 593,231"/><rect x="737" y="338" width="106" height="60" style="fill:#cfe2f3;stroke-width:3;stroke:#000000" filter="url(#sh)"/><line x1="643" y1="434" x2="737" y2="368" style="stroke:#000000;stroke-width:1"/><polygon points="737,368 728,365 728,371" transform="rotate(-35.1 737 368)"/><rect x="710" y="30" width="160" height="90" style="fill:#cfe2f3;stroke-width:3;stroke:#674ea7" filter="url(#sh)"/><line x1="670" y1="175" x2="710" y2="75" style="stroke:#000000;stroke-width:1"/><polygon points="710,75 701,72 701,78" transform="rotate(-68.2 710 75)"/><line x1="790" y1="338" x2="790" y2="120" style="stroke:#000000;stroke-width:1"/><polygon points="790,122 787,131 793,131"/><rect x="937" y="470" width="106" height="60" style="fill:#cfe2f3;stroke-width:3;stroke:#000000" filter="url(#sh)"/><line x1="243" y1="500" x2="937" y2="500" style="stroke:#000000;stroke-width:1"/><polygon points="937,500 928,497 928,503"/><rect x="910" y="230" width="160" height="90" style="fill:#cfe2f3;stroke-width:3;stroke:#674ea7" filter="url(#sh)"/><line x1="270" y1="275" x2="910" y2="275" style="stroke:#000000;stroke-width:1"/><polygon points="910,275 901,272 901,278"/><line x1="990" y1="470" x2="990" y2="320" style="stroke:#000000;stroke-width:1"/><polygon points="990,322 987,331 993,331"/><rect x="1137" y="338" width="106" height="60" style="fill:#cfe2f3;stroke-width:3;stroke:#000000" filter="url(#sh)"/><line x1="1043" y1="500" x2="1137" y2="368" style="stroke:#000000;stroke-width:1"/><polygon points="1137,368 1128,365 1128,371" transform="rotate(-54.5 1137 368)"/><rect x="1110" y="30" width="160" height="90" style="fill:#cfe2f3;stroke-width:3;stroke:#674ea7" filter="url(#sh)"/><line x1="1070" y1="275" x2="1110" y2="75" style="stroke:#000000;stroke-width:1"/><polygon points="1110,75 1101,72 1101,78" transform="rotate(-78.7 1110 75)"/><line x1="1190" y1="338" x2="1190" y2="120" style="stroke:#000000;stroke-width:1"/><polygon points="1190,122 1187,131 1193,131"/><rect x="1337" y="404" width="106" height="60" style="fill:#cfe2f3;stroke-width:3;stroke:#000000" filter="url(#sh)"/><line x1="1043" y1="500" x2="1337" y2="434" style="stroke:#000000;stroke-width:1"/><polygon points="1337,434 1328,431 1328,437" transform="rotate(-12.7 1337 434)"/><rect x="1310" y="130" width="160" height="90" style="fill:#cfe2f3;stroke-width:3;stroke:#674ea7" filter="url(#sh)"/><line x1="1070" y1="275" x2="1310" y2="175" style="stroke:#000000;stroke-width:1"/><polygon points="1310,175 1301,172 1301,178" transform="rotate(-22.6 1310 175)"/><line x1="1390" y1="404" x2="1390" y2="220" style="stroke:#000000;stroke-width:1"/><polygon points="1390,222 1387,231 1393,231"/><rect x="1537" y="338" width="106" height="60" style="fill:#cfe2f3;stroke-width:3;stroke:#000000" filter="url(#sh)"/><line x1="1443" y1="434" x2="1537" y2="368" style="stroke:#000000;stroke-width:1"/><polygon points="1537,368 1528,365 1528,371" transform="rotate(-35.1 1537 368)"/><rect x="1510" y="30" width="160" height="90" style="fill:#cfe2f3;stroke-width:3;stroke:#674ea7" filter="url(#sh)"/><line x1="1470" y1="175" x2="1510" y2="75" style="stroke:#000000;stroke-width:1"/><polygon points="1510,75 1501,72 1501,78" transform="rotate(-68.2 1510 75)"/><line x1="1590" y1="338" x2="1590" y2="120" style="stroke:#000000;stroke-width:1"/><polygon points="1590,122 1587,131 1593,131"/><line x1="1043" y1="500" x2="1695" y2="500" style="stroke:#000000;stroke-width:1;stroke-dasharray:5,5"/><polygon points="1695,500 1686,497 1686,503"/><line x1="1070" y1="275" x2="1695" y2="275" style="stroke:#000000;stroke-width:1;stroke-dasharray:5,5"/><polygon points="1695,275 1686,272 1686,278"/><rect x="890" y="0" width="790" height="543" style="fill:none;stroke-width:2;stroke:#7f7f7f;stroke-dasharray:5,5"/><text x="892" y="32" font-family="Arial" font-size="30">Repeat</text><line x1="90" y1="553" x2="1695" y2="553" style="stroke:#000000;stroke-width:1"/><polygon points="1695,553 1686,550 1686,556"/><line x1="90" y1="553" x2="90" y2="15" style="stroke:#000000;stroke-width:1"/><polygon points="90,17 87,26 93,26"/><text x="1660" y="585" font-family="Arial" font-size="30">Time<tspan x="185" y="585">0</tspan><tspan x="385" y="585">1</tspan><tspan x="585" y="585">2</tspan><tspan x="785" y="585">3</tspan><tspan x="985" y="585">4</tspan><tspan x="1185" y="585">5</tspan><tspan x="1385" y="585">6</tspan><tspan x="1585" y="585">7</tspan><tspan x="2" y="30">Layer</tspan><tspan x="2" y="515">S0T0</tspan><tspan x="2" y="449">S0T1</tspan><tspan x="2" y="383">S0T2</tspan><tspan x="2" y="290">S1T0</tspan><tspan x="2" y="190">S1T1</tspan><tspan x="2" y="90">S1T2</tspan><tspan x="175" y="511">F1</tspan><tspan x="175" y="286">F2</tspan><tspan x="375" y="379">F3</tspan><tspan x="375" y="86">F4</tspan><tspan x="575" y="445" fill="red">F5</tspan><tspan x="575" y="186">F6</tspan><tspan x="775" y="379">F7</tspan><tspan x="775" y="86">F8</tspan><tspan x="975" y="511">F9</tspan><tspan x="960" y="286">F10</tspan><tspan x="1160" y="379">F11</tspan><tspan x="1160" y="86">F12</tspan><tspan x="1360" y="445">F13</tspan><tspan x="1360" y="186">F14</tspan><tspan x="1560" y="379">F15</tspan><tspan x="1560" y="86">F16</tspan></text></svg>