<svg version="1.1" viewBox="0 0 750 300" xmlns:xlink="http://www.w3.org/1999/xlink" xmlns="http://www.w3.org/2000/svg"><defs><filter id="sh"><feGaussianBlur in="SourceAlpha" stdDeviation="4"/><feOffset dx="2" dy="3"/><feBlend in="SourceGraphic"/></filter></defs><rect x="110" y="150" width="160" height="90" style="fill:#cfe2f3;stroke-width:3;stroke:#000000" filter="url(#sh)"/><rect x="110" y="40" width="160" height="90" style="fill:#cfe2f3;stroke-width:3;stroke:#674ea7" filter="url(#sh)"/><line x1="190" y1="150" x2="190" y2="130" style="stroke:#000000;stroke-width:1"/><polygon points="190,132 187,141 193,141"/><rect x="310" y="150" width="160" height="90" style="fill:#cfe2f3;stroke-width:3;stroke:#000000" filter="url(#sh)"/><line x1="270" y1="195" x2="310" y2="195" style="stroke:#000000;stroke-width:1"/><polygon points="310,195 301,192 301,198"/><rect x="310" y="40" width="160" height="90" style="fill:#cfe2f3;stroke-width:3;stroke:#674ea7" filter="url(#sh)"/><line x1="270" y1="85" x2="310" y2="85" style="stroke:#000000;stroke-width:1"/><polygon points="310,85 301,82 301,88"/><line x1="390" y1="150" x2="390" y2="130" style="stroke:#000000;stroke-width:1"/><polygon points="390,132 387,141 393,141"/><rect x="510" y="150" width="160" height="90" style="fill:#cfe2f3;stroke-width:3;stroke:#000000" filter="url(#sh)"/><line x1="470" y1="195" x2="510" y2="195" style="stroke:#000000;stroke-width:1"/><polygon points="510,195 501,192 501,198"/><rect x="510" y="40" width="160" height="90" style="fill:#cfe2f3;stroke-width:3;stroke:#674ea7" filter="url(#sh)"/><line x1="470" y1="85" x2="510" y2="85" style="stroke:#000000;stroke-width:1"/><polygon points="510,85 501,82 501,88"/><line x1="590" y1="150" x2="590" y2="130" style="stroke:#000000;stroke-width:1"/><polygon points="590,132 587,141 593,141"/><line x1="670" y1="195" x2="695" y2="195" style="stroke:#000000;stroke-width:1;stroke-dasharray:5,5"/><polygon points="695,195 686,192 686,198"/><line x1="670" y1="85" x2="695" y2="85" style="stroke:#000000;stroke-width:1;stroke-dasharray:5,5"/><polygon points="695,85 686,82 686,88"/><rect x="490" y="0" width="190" height="255" style="fill:none;stroke-width:2;stroke:#7f7f7f;stroke-dasharray:5,5"/><text x="492" y="32" font-family="Arial" font-size="30">Repeat</text><line x1="90" y1="265" x2="695" y2="265" style="stroke:#000000;stroke-width:1"/><polygon points="695,265 686,262 686,268"/><line x1="90" y1="265" x2="90" y2="15" style="stroke:#000000;stroke-width:1"/><polygon points="90,17 87,26 93,26"/><text x="660" y="297" font-family="Arial" font-size="30">Time<tspan x="185" y="297">0</tspan><tspan x="385" y="297">1</tspan><tspan x="585" y="297">2</tspan><tspan x="2" y="30">Layer</tspan><tspan x="2" y="210">S0</tspan><tspan x="2" y="100">S1</tspan><tspan x="175" y="206">F1</tspan><tspan x="175" y="96">F2</tspan><tspan x="375" y="206">F3</tspan><tspan x="375" y="96">F4</tspan><tspan x="575" y="206">F5</tspan><tspan x="575" y="96">F6</tspan></text></svg>